<svg xmlns="http://www.w3.org/2000/svg" viewBox="0 0 256 256" focusable="false" color="var(--token-861b2ae9-dee3-4143-a255-6faa9a39d943, rgb(255, 255, 255))" style="user-select: none; width: 100%; height: 100%; display: inline-block; fill: var(--token-861b2ae9-dee3-4143-a255-6faa9a39d943, rgb(255, 255, 255)); color: var(--token-861b2ae9-dee3-4143-a255-6faa9a39d943, rgb(255, 255, 255)); flex-shrink: 0;"><g color="var(--token-861b2ae9-dee3-4143-a255-6faa9a39d943, rgb(255, 255, 255))" weight="fill"><path d="M215,219.85a8,8,0,0,1-7,4.15H160a8,8,0,0,1-6.75-3.71l-40.49-63.63L53.92,221.38a8,8,0,0,1-11.84-10.76l61.77-68L41.25,44.3A8,8,0,0,1,48,32H96a8,8,0,0,1,6.75,3.71l40.49,63.63,58.84-64.72a8,8,0,0,1,11.84,10.76l-61.77,67.95,62.6,98.38A8,8,0,0,1,215,219.85Z"/></g></svg>