<svg xmlns="http://www.w3.org/2000/svg" viewBox="0 0 256 256" focusable="false" color="var(--token-528a4e50-1a33-4ebe-a3b3-4f0f1508d312, rgb(255, 255, 255))" style="user-select: none; width: 100%; height: 100%; display: inline-block; fill: var(--token-528a4e50-1a33-4ebe-a3b3-4f0f1508d312, rgb(255, 255, 255)); color: var(--token-528a4e50-1a33-4ebe-a3b3-4f0f1508d312, rgb(255, 255, 255)); flex-shrink: 0;"><g color="var(--token-528a4e50-1a33-4ebe-a3b3-4f0f1508d312, rgb(255, 255, 255))" weight="fill"><path d="M200,112H149l56.27,50A8,8,0,0,1,200,176H136v64a8,8,0,0,1-13.66,5.66l-72-72A8,8,0,0,1,48,168V104a8,8,0,0,1,8-8h51L50.69,46A8,8,0,0,1,56,32H200a8,8,0,0,1,8,8v64A8,8,0,0,1,200,112Z"/></g></svg>